<svg width="16" height="16" xmlns="http://www.w3.org/2000/svg">
 <!-- Generator: sketchtool 53.2 (72643) - https://sketchapp.com -->

 <title>4A3C8475-319C-4D47-8696-57FC4DDA7A1C</title>
 <desc>Created with sketchtool.</desc>
 <g>
  <title>background</title>
  <rect fill="none" id="canvas_background" height="402" width="582" y="-1" x="-1"/>
 </g>
 <g>
  <title>Layer 1</title>
  <g fill-rule="evenodd" fill="none" id="Symbols">
   <g id="microcomposants/icons/16x16/16x16--icon-fermer">
    <g id="Group-3">
     <rect stroke="null" height="16" width="16" id="placeholder"/>
     <path stroke="null" fill="#cf2717" id="Fill-1" d="m8.70725,8.00025l6.146,-6.146c0.196,-0.196 0.196,-0.512 0,-0.708c-0.195,-0.195 -0.511,-0.195 -0.707,0l-6.146,6.147l-6.147,-6.147c-0.195,-0.195 -0.511,-0.195 -0.707,0c-0.195,0.196 -0.195,0.512 0,0.708l6.147,6.146l-6.147,6.146c-0.195,0.196 -0.195,0.512 0,0.708c0.098,0.097 0.226,0.146 0.354,0.146c0.128,0 0.256,-0.049 0.353,-0.146l6.147,-6.147l6.146,6.147c0.098,0.097 0.226,0.146 0.354,0.146c0.128,0 0.256,-0.049 0.353,-0.146c0.196,-0.196 0.196,-0.512 0,-0.708l-6.146,-6.146z"/>
    </g>
   </g>
  </g>
 </g>
</svg>